<svg id="svg" version="1.1" xmlns="http://www.w3.org/2000/svg" xmlns:xlink="http://www.w3.org/1999/xlink" width="400" height="400" viewBox="0, 0, 400,400"><g id="svgg"><path id="path0" d="M183.900 0.297 C 182.415 0.374,181.200 0.608,181.200 0.818 C 181.200 1.028,180.300 1.200,179.200 1.200 C 178.100 1.200,177.200 1.380,177.200 1.600 C 177.200 1.820,176.300 2.000,175.200 2.000 C 174.100 2.000,173.200 2.180,173.200 2.400 C 173.200 2.620,172.581 2.800,171.824 2.800 C 171.067 2.800,170.336 2.980,170.200 3.200 C 170.064 3.420,169.434 3.600,168.800 3.600 C 168.166 3.600,167.536 3.780,167.400 4.000 C 167.264 4.220,166.711 4.400,166.171 4.400 C 165.631 4.400,164.832 4.580,164.395 4.800 C 163.958 5.020,163.242 5.380,162.805 5.600 C 162.368 5.820,161.648 6.000,161.205 6.000 C 160.762 6.000,160.400 6.180,160.400 6.400 C 160.400 6.620,159.950 6.800,159.400 6.800 C 158.850 6.800,158.400 6.980,158.400 7.200 C 158.400 7.420,158.051 7.600,157.624 7.600 C 157.197 7.600,156.736 7.780,156.600 8.000 C 156.464 8.220,155.913 8.400,155.376 8.400 C 154.839 8.400,154.400 8.580,154.400 8.800 C 154.400 9.020,154.110 9.200,153.755 9.200 C 153.068 9.200,147.393 11.964,144.400 13.757 C 143.410 14.350,142.285 14.938,141.900 15.064 C 141.515 15.190,141.200 15.452,141.200 15.647 C 141.200 15.841,140.930 16.000,140.600 16.000 C 140.270 16.000,140.000 16.180,140.000 16.400 C 140.000 16.620,139.730 16.800,139.400 16.800 C 139.070 16.800,138.800 16.980,138.800 17.200 C 138.800 17.420,138.564 17.600,138.275 17.600 C 137.987 17.600,137.364 17.960,136.892 18.400 C 136.420 18.840,135.873 19.200,135.676 19.200 C 135.479 19.200,134.754 19.740,134.063 20.400 C 133.372 21.060,132.671 21.601,132.504 21.602 C 132.337 21.603,131.625 22.143,130.922 22.802 C 130.219 23.461,129.546 24.000,129.426 24.000 C 129.089 24.000,125.838 26.743,122.958 29.458 C 122.458 29.929,121.948 30.214,121.824 30.091 C 121.701 29.968,121.600 30.043,121.600 30.258 C 121.600 30.474,120.385 31.916,118.900 33.463 C 115.115 37.405,113.075 39.688,111.745 41.467 C 111.115 42.310,110.285 43.348,109.900 43.775 C 109.515 44.202,109.200 44.798,109.200 45.099 C 109.200 45.401,109.020 45.536,108.800 45.400 C 108.580 45.264,108.400 45.433,108.400 45.776 C 108.400 46.119,108.220 46.400,108.000 46.400 C 107.780 46.400,107.600 46.670,107.600 47.000 C 107.600 47.330,107.420 47.600,107.200 47.600 C 106.980 47.600,106.800 47.870,106.800 48.200 C 106.800 48.530,106.620 48.800,106.400 48.800 C 106.180 48.800,106.000 49.070,106.000 49.400 C 106.000 49.730,105.820 50.000,105.600 50.000 C 105.380 50.000,105.200 50.270,105.200 50.600 C 105.200 50.930,105.020 51.200,104.800 51.200 C 104.580 51.200,104.400 51.436,104.400 51.725 C 104.400 52.013,104.040 52.636,103.600 53.108 C 103.160 53.580,102.800 54.167,102.800 54.412 C 102.800 54.657,102.528 55.129,102.196 55.461 C 101.864 55.793,101.695 56.230,101.820 56.432 C 101.945 56.635,101.892 56.800,101.703 56.800 C 101.514 56.800,100.961 57.565,100.475 58.500 C 98.118 63.028,98.610 62.846,89.600 62.521 C 86.296 62.402,78.568 62.879,78.220 63.224 C 78.011 63.431,76.897 63.600,75.744 63.600 C 74.591 63.600,73.536 63.780,73.400 64.000 C 73.264 64.220,72.443 64.400,71.576 64.400 C 70.709 64.400,70.000 64.543,70.000 64.718 C 70.000 64.893,69.325 65.081,68.500 65.136 C 67.675 65.190,66.940 65.407,66.867 65.618 C 66.793 65.828,66.118 66.000,65.367 66.000 C 64.615 66.000,64.000 66.180,64.000 66.400 C 64.000 66.620,63.561 66.800,63.024 66.800 C 62.487 66.800,61.958 66.944,61.849 67.121 C 61.740 67.297,60.739 67.690,59.625 67.993 C 58.511 68.296,57.600 68.692,57.600 68.872 C 57.600 69.053,57.240 69.200,56.800 69.200 C 56.360 69.200,56.000 69.380,56.000 69.600 C 56.000 69.820,55.645 70.000,55.212 70.000 C 54.779 70.000,53.783 70.360,53.000 70.800 C 52.217 71.240,51.394 71.600,51.171 71.600 C 50.949 71.600,50.380 71.960,49.908 72.400 C 49.436 72.840,48.813 73.200,48.525 73.200 C 48.236 73.200,48.000 73.380,48.000 73.600 C 48.000 73.820,47.640 74.000,47.200 74.000 C 46.760 74.000,46.400 74.180,46.400 74.400 C 46.400 74.620,46.234 74.800,46.031 74.800 C 45.057 74.800,38.282 79.685,34.103 83.400 C 31.080 86.088,27.370 89.772,26.945 90.508 C 26.755 90.837,25.790 92.006,24.800 93.106 C 22.317 95.865,21.600 96.760,21.599 97.105 C 21.599 97.267,21.059 98.030,20.400 98.800 C 19.741 99.570,19.201 100.425,19.201 100.700 C 19.200 100.975,19.050 101.200,18.868 101.200 C 18.685 101.200,18.280 101.695,17.968 102.300 C 17.656 102.905,17.299 103.490,17.174 103.600 C 17.049 103.710,16.486 104.737,15.922 105.882 C 15.358 107.027,14.785 107.852,14.648 107.715 C 14.512 107.578,14.400 107.769,14.400 108.139 C 14.400 108.508,14.232 109.123,14.026 109.505 C 13.821 109.887,13.417 110.785,13.129 111.500 C 12.840 112.215,12.469 112.800,12.302 112.800 C 12.136 112.800,12.000 113.132,12.000 113.539 C 12.000 113.945,11.691 114.890,11.314 115.639 C 10.937 116.387,10.586 117.180,10.534 117.400 C 10.483 117.620,10.156 118.584,9.807 119.543 C 9.187 121.252,9.041 121.874,8.554 124.900 C 8.421 125.725,8.152 126.400,7.956 126.400 C 7.760 126.400,7.600 127.120,7.600 128.000 C 7.600 128.880,7.451 129.600,7.268 129.600 C 7.086 129.600,6.896 130.635,6.845 131.900 C 6.795 133.165,6.584 134.371,6.377 134.580 C 6.170 134.789,6.000 136.724,6.000 138.880 C 6.000 141.400,5.847 142.800,5.572 142.800 C 5.281 142.800,5.219 143.989,5.380 146.500 C 5.510 148.535,5.714 152.353,5.833 154.983 C 5.976 158.134,6.176 159.568,6.419 159.183 C 6.667 158.790,6.790 159.416,6.794 161.100 C 6.797 162.496,6.977 163.600,7.200 163.600 C 7.420 163.600,7.600 164.309,7.600 165.176 C 7.600 166.043,7.780 166.864,8.000 167.000 C 8.220 167.136,8.400 167.927,8.400 168.757 C 8.400 169.587,8.535 170.402,8.700 170.567 C 8.865 170.732,9.015 170.987,9.033 171.133 C 9.095 171.645,9.692 173.812,10.214 175.426 C 11.028 177.940,15.025 186.701,15.586 187.200 C 15.710 187.310,16.238 188.247,16.759 189.282 C 17.281 190.318,18.043 191.525,18.454 191.966 C 18.864 192.406,19.200 193.004,19.200 193.295 C 19.200 193.586,19.560 194.083,20.000 194.400 C 20.440 194.717,20.800 195.180,20.800 195.429 C 20.800 195.678,21.340 196.446,22.000 197.137 C 22.660 197.828,23.200 198.675,23.200 199.020 C 23.200 199.365,23.380 199.536,23.600 199.400 C 23.820 199.264,24.000 199.349,24.000 199.588 C 24.000 200.061,24.673 200.822,29.757 206.100 C 31.611 208.025,33.243 209.600,33.383 209.600 C 33.523 209.600,34.538 210.500,35.638 211.600 C 36.738 212.700,37.860 213.600,38.131 213.600 C 38.402 213.600,38.883 213.960,39.200 214.400 C 39.517 214.840,39.980 215.200,40.229 215.200 C 40.478 215.200,41.246 215.740,41.937 216.400 C 42.628 217.060,43.464 217.600,43.796 217.600 C 44.128 217.600,44.400 217.736,44.400 217.902 C 44.400 218.069,44.906 218.429,45.525 218.703 C 46.144 218.976,47.036 219.560,47.508 220.000 C 47.980 220.440,48.557 220.800,48.789 220.800 C 49.199 220.800,50.796 221.595,51.200 222.001 C 51.310 222.111,51.895 222.456,52.500 222.768 C 53.597 223.334,53.600 223.348,53.600 227.644 C 53.600 230.085,53.773 232.060,54.000 232.200 C 54.220 232.336,54.400 233.347,54.400 234.447 C 54.400 235.679,54.554 236.352,54.800 236.200 C 55.042 236.051,55.200 236.596,55.200 237.576 C 55.200 238.469,55.380 239.200,55.600 239.200 C 55.820 239.200,56.000 239.740,56.000 240.400 C 56.000 241.060,56.180 241.600,56.400 241.600 C 56.620 241.600,56.800 242.140,56.800 242.800 C 56.800 243.460,56.980 244.000,57.200 244.000 C 57.420 244.000,57.600 244.360,57.600 244.800 C 57.600 245.240,57.780 245.600,58.000 245.600 C 58.220 245.600,58.400 245.836,58.400 246.125 C 58.400 246.414,58.850 247.583,59.400 248.723 C 59.950 249.863,60.400 250.906,60.400 251.040 C 60.400 251.174,60.940 252.084,61.600 253.062 C 62.260 254.040,62.800 254.996,62.800 255.187 C 62.800 255.377,62.942 255.593,63.115 255.667 C 63.288 255.740,64.053 256.601,64.815 257.579 C 66.610 259.885,72.377 265.649,74.077 266.838 C 74.805 267.346,75.670 268.041,76.001 268.381 C 76.739 269.141,79.078 270.800,79.412 270.800 C 79.546 270.800,80.441 271.340,81.400 272.000 C 82.359 272.660,83.257 273.200,83.394 273.200 C 83.531 273.200,84.444 273.565,85.422 274.010 C 86.400 274.456,87.740 274.928,88.400 275.060 C 89.060 275.192,89.600 275.457,89.600 275.650 C 89.600 275.843,90.140 276.000,90.800 276.000 C 91.460 276.000,92.000 276.180,92.000 276.400 C 92.000 276.620,92.630 276.800,93.400 276.800 C 94.170 276.800,94.800 276.980,94.800 277.200 C 94.800 277.420,95.520 277.600,96.400 277.600 C 97.280 277.600,98.000 277.780,98.000 278.000 C 98.000 278.228,99.192 278.400,100.776 278.400 C 102.303 278.400,103.664 278.580,103.800 278.800 C 103.959 279.057,110.522 279.200,122.177 279.200 C 143.250 279.200,141.745 279.597,139.216 274.709 C 138.388 273.109,135.051 266.580,131.800 260.200 C 128.549 253.820,123.546 244.010,120.681 238.400 C 109.973 217.430,109.100 215.638,109.318 215.071 C 109.440 214.751,111.849 213.323,114.670 211.897 C 117.492 210.472,122.770 207.776,126.400 205.906 C 130.030 204.037,138.400 199.757,145.000 196.396 C 151.600 193.035,160.849 188.321,165.553 185.920 C 170.257 183.519,174.312 181.634,174.565 181.731 C 174.818 181.828,177.251 186.293,179.972 191.654 C 182.693 197.014,186.446 204.370,188.311 208.000 C 190.176 211.630,193.569 218.248,195.851 222.706 L 200.000 230.813 200.000 115.406 L 200.000 0.000 193.300 0.078 C 189.615 0.121,185.385 0.220,183.900 0.297 M230.689 220.554 C 228.984 222.669,227.726 224.392,227.894 224.382 C 228.062 224.372,229.370 222.866,230.800 221.036 C 233.610 217.439,233.984 217.385,233.994 220.576 C 234.000 222.574,234.631 226.565,235.231 228.400 C 235.656 229.700,235.265 226.354,234.764 224.400 C 234.566 223.630,234.386 222.010,234.362 220.800 C 234.276 216.270,234.149 216.261,230.689 220.554 M226.034 226.358 C 225.355 227.214,224.800 228.038,224.800 228.188 C 224.800 228.433,225.605 227.515,227.158 225.500 C 227.455 225.115,227.601 224.800,227.483 224.800 C 227.364 224.800,226.712 225.501,226.034 226.358 M223.544 229.500 C 222.275 231.032,221.819 231.742,222.281 231.465 C 222.793 231.158,224.569 228.800,224.289 228.800 C 224.198 228.800,223.863 229.115,223.544 229.500 M235.641 230.200 C 235.619 231.051,237.281 236.214,237.717 236.650 C 237.859 236.792,237.787 236.299,237.557 235.554 C 237.328 234.809,236.807 233.120,236.400 231.800 C 235.994 230.480,235.652 229.760,235.641 230.200 M200.006 232.223 C 199.999 232.750,205.128 242.852,205.681 243.400 C 205.903 243.620,205.495 242.630,204.774 241.200 C 200.877 233.468,200.011 231.838,200.006 232.223 M220.077 233.863 C 219.349 234.860,218.931 235.566,219.148 235.432 C 219.792 235.034,222.096 231.998,221.734 232.025 C 221.550 232.038,220.805 232.865,220.077 233.863 M217.741 236.900 C 216.312 238.512,214.189 241.376,214.621 241.110 C 215.098 240.816,218.939 236.000,218.696 236.000 C 218.610 236.000,218.180 236.405,217.741 236.900 M238.000 237.484 C 238.000 238.051,239.163 240.800,239.402 240.800 C 239.507 240.800,239.296 240.035,238.932 239.100 C 238.195 237.207,238.000 236.869,238.000 237.484 M213.270 242.526 C 212.791 243.035,212.400 243.588,212.400 243.754 C 212.400 244.069,213.003 243.502,213.949 242.298 C 214.743 241.289,214.289 241.440,213.270 242.526 M242.009 246.300 C 242.014 246.465,242.385 247.050,242.833 247.600 L 243.648 248.600 243.014 247.300 C 242.411 246.065,241.989 245.645,242.009 246.300 M207.606 247.513 C 207.597 248.244,208.766 248.595,209.327 248.029 C 209.692 247.661,209.631 247.617,209.060 247.835 C 208.600 248.010,208.185 247.905,207.966 247.558 C 207.701 247.141,207.611 247.129,207.606 247.513 M246.060 252.500 C 246.563 253.215,247.498 254.340,248.139 255.000 C 248.780 255.660,248.460 255.075,247.428 253.700 C 245.493 251.119,244.438 250.195,246.060 252.500 M249.600 256.822 C 249.600 257.250,256.899 264.139,258.435 265.161 C 259.255 265.706,259.001 265.384,257.800 264.354 C 256.700 263.411,254.405 261.268,252.700 259.592 C 250.995 257.917,249.600 256.670,249.600 256.822 M260.000 266.279 C 260.000 266.460,260.405 266.858,260.900 267.165 C 261.395 267.471,262.205 267.985,262.700 268.307 C 264.311 269.354,263.648 268.570,261.800 267.243 C 260.810 266.532,260.000 266.098,260.000 266.279 M265.200 269.793 C 265.200 269.900,266.100 270.443,267.200 271.000 C 269.715 272.275,269.821 272.016,267.350 270.634 C 265.427 269.560,265.200 269.471,265.200 269.793 " stroke="none" fill="#7ce484" fill-rule="evenodd"></path><path id="path1" d="M166.194 186.151 C 159.113 189.779,156.186 191.287,154.600 192.122 C 150.062 194.513,129.032 205.235,115.000 212.314 C 112.140 213.757,109.725 214.996,109.634 215.068 C 109.542 215.140,111.190 218.575,113.296 222.700 C 115.402 226.825,119.097 234.070,121.507 238.800 C 125.483 246.602,128.668 252.832,138.311 271.676 C 141.159 277.241,141.461 278.034,140.974 278.676 C 140.515 279.282,140.423 289.231,140.413 339.700 L 140.400 400.000 170.200 400.000 L 200.000 400.000 199.999 316.100 L 199.998 232.200 196.064 224.400 C 193.901 220.110,189.910 212.280,187.195 207.000 C 184.481 201.720,180.554 194.025,178.470 189.900 C 175.866 184.747,174.480 182.409,174.040 182.429 C 173.688 182.445,170.157 184.120,166.194 186.151 " stroke="none" fill="#c3f3c3" fill-rule="evenodd"></path><path id="path2" d="M165.400 185.962 C 160.780 188.340,151.600 193.035,145.000 196.396 C 138.400 199.757,130.030 204.037,126.400 205.906 C 122.770 207.776,117.492 210.472,114.670 211.897 C 111.849 213.323,109.440 214.751,109.318 215.071 C 109.073 215.707,108.684 214.926,130.288 257.200 C 132.368 261.270,135.530 267.469,137.316 270.975 C 139.220 274.714,140.533 277.774,140.491 278.375 C 140.426 279.326,140.461 279.348,140.972 278.676 C 141.461 278.033,141.163 277.249,138.311 271.676 C 128.668 252.832,125.483 246.602,121.507 238.800 C 119.097 234.070,115.402 226.825,113.296 222.700 C 111.190 218.575,109.542 215.140,109.634 215.068 C 109.725 214.996,112.140 213.757,115.000 212.314 C 129.017 205.243,149.345 194.878,154.700 192.072 C 162.766 187.844,173.720 182.400,174.160 182.400 C 174.446 182.400,176.385 185.775,178.470 189.900 C 180.554 194.025,184.481 201.720,187.195 207.000 C 189.910 212.280,193.901 220.110,196.064 224.400 C 198.228 228.690,199.998 231.890,199.999 231.512 C 200.000 231.134,198.270 227.444,196.155 223.312 C 190.897 213.042,180.373 192.443,177.398 186.601 C 176.054 183.962,174.694 181.765,174.377 181.721 C 174.060 181.676,170.020 183.584,165.400 185.962 M231.303 220.370 C 230.150 221.840,228.890 223.399,228.503 223.835 C 228.116 224.271,227.172 225.432,226.406 226.414 C 225.639 227.396,224.792 228.470,224.524 228.800 C 224.257 229.130,221.777 232.280,219.015 235.800 C 216.252 239.320,213.586 242.652,213.091 243.204 C 212.596 243.757,211.745 244.837,211.201 245.604 C 208.600 249.273,208.549 249.264,206.200 244.700 C 205.153 242.665,203.329 239.118,202.148 236.818 L 200.000 232.636 200.000 316.318 L 200.000 400.000 227.200 400.000 L 254.400 400.000 254.400 357.200 C 254.400 327.343,254.528 314.400,254.824 314.400 C 255.057 314.400,255.136 314.220,255.000 314.000 C 254.864 313.780,254.973 313.600,255.243 313.600 C 255.513 313.600,255.628 313.495,255.499 313.366 C 255.291 313.157,256.094 312.034,257.481 310.594 C 257.745 310.320,257.850 309.984,257.714 309.848 C 257.578 309.711,257.767 309.600,258.133 309.600 C 258.500 309.600,258.800 309.312,258.800 308.960 C 258.800 308.609,259.359 307.799,260.042 307.160 C 260.726 306.522,261.188 306.000,261.069 306.000 C 260.951 306.000,261.472 305.345,262.227 304.544 C 262.982 303.743,263.600 302.909,263.600 302.691 C 263.600 302.473,263.924 302.003,264.319 301.647 C 264.714 301.291,265.475 300.370,266.008 299.600 C 266.542 298.830,267.315 297.840,267.727 297.400 C 268.139 296.960,269.007 295.835,269.657 294.900 C 270.307 293.965,270.979 293.200,271.152 293.200 C 271.324 293.200,271.720 292.705,272.032 292.100 C 272.345 291.495,273.005 290.672,273.500 290.271 C 273.995 289.870,274.400 289.307,274.400 289.019 C 274.400 288.732,275.075 287.795,275.900 286.938 C 276.725 286.080,277.655 284.889,277.968 284.289 C 278.280 283.690,278.685 283.200,278.868 283.200 C 279.050 283.200,279.200 282.919,279.200 282.576 C 279.200 282.233,279.380 282.064,279.600 282.200 C 279.820 282.336,280.000 282.167,280.000 281.824 C 280.000 281.481,280.180 281.200,280.400 281.200 C 280.620 281.200,280.800 281.002,280.800 280.760 C 280.800 280.519,281.341 279.816,282.002 279.198 C 283.364 277.926,283.260 276.800,281.781 276.800 C 281.267 276.800,280.736 276.620,280.600 276.400 C 280.464 276.180,279.859 276.000,279.256 276.000 C 278.653 276.000,277.989 275.857,277.780 275.682 C 277.571 275.507,276.680 275.122,275.800 274.828 C 271.462 273.376,261.204 267.932,260.000 266.443 C 259.890 266.307,259.080 265.667,258.200 265.020 C 256.568 263.821,250.360 257.743,248.154 255.184 C 246.471 253.231,242.383 247.021,241.188 244.600 C 240.644 243.500,240.065 242.540,239.900 242.467 C 239.735 242.393,239.600 242.112,239.600 241.842 C 239.600 241.571,239.240 240.605,238.800 239.694 C 238.360 238.784,238.000 237.848,238.000 237.614 C 238.000 237.380,237.829 236.877,237.619 236.495 C 237.013 235.391,235.743 231.217,235.217 228.600 C 234.951 227.280,234.569 225.445,234.367 224.523 C 234.165 223.600,233.997 221.890,233.994 220.723 C 233.984 217.452,233.629 217.406,231.303 220.370 " stroke="none" fill="#9bec9c" fill-rule="evenodd"></path><path id="path3" d="M200.098 115.530 L 200.200 231.185 204.200 239.174 C 208.464 247.689,208.652 247.906,210.054 245.900 C 210.553 245.185,211.255 244.330,211.613 244.000 C 211.971 243.670,212.430 243.109,212.632 242.754 C 213.026 242.063,213.904 240.930,218.000 235.831 C 219.430 234.051,221.092 231.936,221.694 231.132 C 222.296 230.327,223.016 229.429,223.294 229.135 C 223.572 228.841,224.275 227.970,224.855 227.200 C 225.435 226.430,226.245 225.408,226.655 224.928 C 227.065 224.448,228.823 222.243,230.561 220.028 C 234.428 215.101,234.190 215.086,234.762 220.300 C 235.499 227.017,236.787 232.562,238.779 237.600 C 239.991 240.664,242.509 245.773,242.886 245.933 C 243.059 246.007,243.200 246.244,243.200 246.461 C 243.200 248.348,252.598 259.559,257.400 263.400 C 258.500 264.280,259.490 265.093,259.600 265.207 C 260.936 266.588,271.010 272.217,274.800 273.702 C 275.350 273.917,276.113 274.252,276.495 274.447 C 276.877 274.641,277.541 274.800,277.971 274.800 C 278.401 274.800,278.864 274.980,279.000 275.200 C 279.136 275.420,279.651 275.600,280.144 275.600 C 281.377 275.600,283.193 276.493,283.197 277.100 C 283.199 277.403,283.744 277.600,284.576 277.600 C 285.333 277.600,286.064 277.780,286.200 278.000 C 286.336 278.220,287.697 278.400,289.224 278.400 C 290.808 278.400,292.000 278.572,292.000 278.800 C 292.000 279.048,294.200 279.200,297.800 279.200 C 301.400 279.200,303.600 279.048,303.600 278.800 C 303.600 278.569,304.867 278.400,306.600 278.400 C 308.333 278.400,309.600 278.231,309.600 278.000 C 309.600 277.780,310.500 277.600,311.600 277.600 C 312.700 277.600,313.600 277.420,313.600 277.200 C 313.600 276.980,314.219 276.800,314.976 276.800 C 315.733 276.800,316.464 276.620,316.600 276.400 C 316.736 276.180,317.377 276.000,318.024 276.000 C 318.671 276.000,319.200 275.844,319.200 275.652 C 319.200 275.461,319.875 275.195,320.700 275.061 C 322.203 274.817,327.283 272.469,327.533 271.902 C 327.607 271.736,328.012 271.600,328.433 271.600 C 328.855 271.600,329.200 271.420,329.200 271.200 C 329.200 270.980,329.560 270.800,330.000 270.800 C 330.440 270.800,330.800 270.620,330.800 270.400 C 330.800 270.180,331.036 270.000,331.325 270.000 C 331.613 270.000,332.236 269.640,332.708 269.200 C 333.180 268.760,333.727 268.400,333.924 268.400 C 334.121 268.400,334.846 267.860,335.537 267.200 C 336.228 266.540,336.953 266.000,337.149 266.000 C 337.344 266.000,338.795 264.740,340.372 263.200 C 341.949 261.660,343.411 260.400,343.620 260.400 C 343.829 260.400,344.000 260.199,344.000 259.953 C 344.000 259.708,345.080 258.440,346.400 257.136 C 347.720 255.833,348.800 254.592,348.800 254.379 C 348.800 254.167,349.340 253.428,350.000 252.737 C 350.660 252.046,351.200 251.238,351.200 250.941 C 351.200 250.643,351.358 250.400,351.551 250.400 C 351.745 250.400,352.127 249.860,352.400 249.200 C 352.673 248.540,353.055 248.000,353.249 248.000 C 353.442 248.000,353.600 247.640,353.600 247.200 C 353.600 246.760,353.780 246.400,354.000 246.400 C 354.220 246.400,354.400 246.040,354.400 245.600 C 354.400 245.160,354.580 244.800,354.800 244.800 C 355.020 244.800,355.200 244.440,355.200 244.000 C 355.200 243.560,355.380 243.200,355.600 243.200 C 355.820 243.200,356.000 242.840,356.000 242.400 C 356.000 241.960,356.159 241.600,356.353 241.600 C 356.548 241.600,356.810 241.285,356.936 240.900 C 357.062 240.515,357.533 239.217,357.982 238.015 C 358.432 236.814,358.800 235.419,358.800 234.915 C 358.800 234.412,358.980 234.000,359.200 234.000 C 359.420 234.000,359.600 233.381,359.600 232.624 C 359.600 231.867,359.780 231.136,360.000 231.000 C 360.220 230.864,360.400 230.043,360.400 229.176 C 360.400 228.309,360.580 227.600,360.800 227.600 C 361.020 227.600,361.200 226.700,361.200 225.600 C 361.200 224.500,361.380 223.600,361.600 223.600 C 361.844 223.600,362.000 221.730,362.000 218.789 L 362.000 213.979 363.789 212.189 C 364.774 211.205,365.731 210.400,365.916 210.400 C 366.369 210.400,372.295 204.589,373.800 202.669 C 374.460 201.828,375.405 200.711,375.900 200.188 C 376.395 199.664,376.800 199.030,376.800 198.779 C 376.800 198.527,377.340 197.817,378.000 197.200 C 378.660 196.583,379.200 195.831,379.200 195.528 C 379.200 195.225,379.560 194.717,380.000 194.400 C 380.440 194.083,380.800 193.569,380.800 193.259 C 380.800 192.948,381.129 192.403,381.530 192.047 C 381.932 191.691,382.516 190.815,382.828 190.100 C 383.140 189.385,383.505 188.800,383.640 188.800 C 383.774 188.800,384.649 187.225,385.583 185.300 C 386.517 183.375,387.443 181.487,387.641 181.105 C 387.838 180.723,388.000 180.138,388.000 179.805 C 388.000 179.472,388.147 179.200,388.328 179.200 C 388.508 179.200,388.904 178.289,389.207 177.175 C 389.510 176.061,389.903 175.060,390.079 174.951 C 390.256 174.842,390.400 174.324,390.400 173.800 C 390.400 173.276,390.572 172.741,390.782 172.611 C 390.991 172.482,391.285 171.301,391.433 169.988 C 391.582 168.675,391.860 167.600,392.052 167.600 C 392.243 167.600,392.400 166.700,392.400 165.600 C 392.400 164.500,392.580 163.600,392.800 163.600 C 393.020 163.600,393.200 162.700,393.200 161.600 C 393.200 160.500,393.380 159.600,393.600 159.600 C 393.843 159.600,394.000 157.808,394.000 155.024 C 394.000 152.404,394.171 150.342,394.400 150.200 C 394.621 150.064,394.800 148.270,394.800 146.200 C 394.800 144.130,394.621 142.336,394.400 142.200 C 394.177 142.062,394.000 140.196,394.000 137.976 C 394.000 135.592,393.840 134.000,393.600 134.000 C 393.380 134.000,393.200 133.010,393.200 131.800 C 393.200 130.590,393.020 129.600,392.800 129.600 C 392.580 129.600,392.400 128.891,392.400 128.024 C 392.400 127.157,392.244 126.351,392.053 126.233 C 391.862 126.114,391.583 124.939,391.434 123.621 C 391.285 122.303,390.991 121.118,390.782 120.989 C 390.572 120.859,390.400 120.324,390.400 119.800 C 390.400 119.276,390.256 118.758,390.079 118.649 C 389.903 118.540,389.510 117.539,389.207 116.425 C 388.904 115.311,388.508 114.400,388.328 114.400 C 388.147 114.400,388.000 114.128,388.000 113.795 C 388.000 113.462,387.832 112.877,387.626 112.495 C 387.421 112.113,387.017 111.215,386.729 110.500 C 386.440 109.785,386.069 109.200,385.902 109.200 C 385.736 109.200,385.600 108.840,385.600 108.400 C 385.600 107.960,385.420 107.600,385.200 107.600 C 384.980 107.600,384.800 107.240,384.800 106.800 C 384.800 106.360,384.642 106.000,384.449 106.000 C 384.255 106.000,383.873 105.460,383.600 104.800 C 383.327 104.140,382.945 103.600,382.751 103.600 C 382.558 103.600,382.400 103.280,382.400 102.888 C 382.400 102.497,382.040 101.917,381.600 101.600 C 381.160 101.283,380.800 100.743,380.800 100.400 C 380.800 100.057,380.440 99.517,380.000 99.200 C 379.560 98.883,379.200 98.343,379.200 98.000 C 379.200 97.657,378.840 97.117,378.400 96.800 C 377.960 96.483,377.600 95.993,377.600 95.712 C 377.600 95.430,377.420 95.200,377.200 95.200 C 376.980 95.200,376.800 95.042,376.800 94.848 C 376.800 94.655,376.080 93.755,375.200 92.848 C 374.320 91.941,373.600 91.034,373.600 90.833 C 373.600 90.320,366.473 83.200,365.959 83.200 C 365.727 83.200,364.846 82.480,364.000 81.600 C 363.154 80.720,362.295 80.000,362.091 80.000 C 361.886 80.000,361.194 79.505,360.552 78.900 C 359.911 78.295,358.894 77.545,358.293 77.232 C 357.692 76.920,357.200 76.505,357.200 76.309 C 357.200 76.113,357.044 76.049,356.853 76.167 C 356.663 76.285,356.185 76.025,355.791 75.591 C 355.398 75.156,354.744 74.800,354.338 74.800 C 353.932 74.800,353.600 74.620,353.600 74.400 C 353.600 74.180,353.364 74.000,353.075 74.000 C 352.787 74.000,352.164 73.640,351.692 73.200 C 351.220 72.760,350.556 72.400,350.217 72.400 C 349.878 72.400,349.600 72.220,349.600 72.000 C 349.600 71.780,349.240 71.600,348.800 71.600 C 348.360 71.600,348.000 71.420,348.000 71.200 C 348.000 70.980,347.640 70.800,347.200 70.800 C 346.760 70.800,346.400 70.620,346.400 70.400 C 346.400 70.180,346.051 70.000,345.624 70.000 C 345.197 70.000,344.736 69.820,344.600 69.600 C 344.464 69.380,343.913 69.200,343.376 69.200 C 342.839 69.200,342.400 69.020,342.400 68.800 C 342.400 68.580,342.040 68.400,341.600 68.400 C 341.160 68.400,340.800 68.220,340.800 68.000 C 340.800 67.780,340.350 67.600,339.800 67.600 C 339.250 67.600,338.800 67.420,338.800 67.200 C 338.800 66.980,338.260 66.800,337.600 66.800 C 336.940 66.800,336.400 66.620,336.400 66.400 C 336.400 66.180,335.871 66.000,335.224 66.000 C 334.577 66.000,333.936 65.820,333.800 65.600 C 333.664 65.380,332.933 65.200,332.176 65.200 C 331.419 65.200,330.800 65.020,330.800 64.800 C 330.800 64.580,329.900 64.400,328.800 64.400 C 327.700 64.400,326.800 64.220,326.800 64.000 C 326.800 63.780,325.846 63.600,324.680 63.600 C 323.514 63.600,322.389 63.431,322.180 63.224 C 321.971 63.017,319.730 62.759,317.200 62.650 C 314.670 62.541,311.655 62.333,310.500 62.187 C 309.083 62.009,308.400 62.065,308.400 62.361 C 308.400 62.996,302.483 62.941,301.847 62.300 C 301.574 62.025,301.093 61.215,300.778 60.500 C 300.463 59.785,300.069 59.200,299.902 59.200 C 299.736 59.200,299.600 58.840,299.600 58.400 C 299.600 57.960,299.420 57.600,299.200 57.600 C 298.980 57.600,298.800 57.280,298.800 56.888 C 298.800 56.497,298.440 55.917,298.000 55.600 C 297.560 55.283,297.200 54.703,297.200 54.312 C 297.200 53.920,297.020 53.600,296.800 53.600 C 296.580 53.600,296.400 53.280,296.400 52.888 C 296.400 52.497,296.040 51.917,295.600 51.600 C 295.160 51.283,294.800 50.743,294.800 50.400 C 294.800 50.057,294.440 49.517,294.000 49.200 C 293.560 48.883,293.200 48.343,293.200 48.000 C 293.200 47.657,292.840 47.117,292.400 46.800 C 291.960 46.483,291.600 45.994,291.600 45.713 C 291.600 45.432,290.970 44.505,290.200 43.653 C 289.430 42.800,288.800 41.976,288.800 41.820 C 288.800 41.665,288.119 40.876,287.287 40.069 C 286.455 39.261,285.331 37.970,284.790 37.200 C 283.551 35.437,277.217 29.114,274.586 27.014 C 273.494 26.142,272.309 25.107,271.953 24.714 C 271.597 24.321,271.102 24.000,270.853 24.000 C 270.604 24.000,270.400 23.820,270.400 23.600 C 270.400 23.380,270.218 23.200,269.996 23.200 C 269.774 23.200,269.028 22.660,268.337 22.000 C 267.646 21.340,266.878 20.800,266.629 20.800 C 266.380 20.800,265.917 20.440,265.600 20.000 C 265.283 19.560,264.743 19.200,264.400 19.200 C 264.057 19.200,263.517 18.840,263.200 18.400 C 262.883 17.960,262.343 17.600,262.000 17.600 C 261.657 17.600,261.117 17.240,260.800 16.800 C 260.483 16.360,259.986 16.000,259.695 16.000 C 259.404 16.000,258.780 15.640,258.308 15.200 C 257.836 14.760,257.213 14.400,256.925 14.400 C 256.636 14.400,256.400 14.254,256.400 14.075 C 256.400 13.896,255.770 13.502,255.000 13.200 C 254.230 12.898,253.600 12.504,253.600 12.325 C 253.600 12.146,253.240 12.000,252.800 12.000 C 252.360 12.000,252.000 11.820,252.000 11.600 C 252.000 11.380,251.640 11.200,251.200 11.200 C 250.760 11.200,250.400 11.020,250.400 10.800 C 250.400 10.580,250.040 10.400,249.600 10.400 C 249.160 10.400,248.800 10.220,248.800 10.000 C 248.800 9.780,248.551 9.600,248.246 9.600 C 247.941 9.600,247.176 9.331,246.546 9.002 C 245.916 8.674,245.085 8.404,244.700 8.402 C 244.315 8.401,244.000 8.220,244.000 8.000 C 244.000 7.780,243.460 7.600,242.800 7.600 C 242.140 7.600,241.600 7.420,241.600 7.200 C 241.600 6.980,241.150 6.800,240.600 6.800 C 240.050 6.800,239.600 6.620,239.600 6.400 C 239.600 6.180,239.251 6.000,238.824 6.000 C 238.397 6.000,237.936 5.820,237.800 5.600 C 237.664 5.380,237.113 5.200,236.576 5.200 C 236.039 5.200,235.600 5.020,235.600 4.800 C 235.600 4.580,234.970 4.400,234.200 4.400 C 233.430 4.400,232.800 4.220,232.800 4.000 C 232.800 3.780,232.170 3.600,231.400 3.600 C 230.630 3.600,230.000 3.420,230.000 3.200 C 230.000 2.980,229.280 2.800,228.400 2.800 C 227.520 2.800,226.800 2.620,226.800 2.400 C 226.800 2.180,226.091 2.000,225.224 2.000 C 224.357 2.000,223.536 1.820,223.400 1.600 C 223.264 1.380,222.278 1.200,221.210 1.200 C 220.141 1.200,219.203 1.010,219.126 0.777 C 219.035 0.505,215.603 0.269,209.490 0.114 L 199.996 -0.125 200.098 115.530 " stroke="none" fill="#0cd47b" fill-rule="evenodd"></path><path id="path4" d="M89.505 62.283 C 90.002 62.379,90.722 62.375,91.105 62.275 C 91.487 62.175,91.080 62.096,90.200 62.101 C 89.320 62.105,89.007 62.187,89.505 62.283 M230.561 220.028 C 228.823 222.243,227.065 224.448,226.655 224.928 C 226.245 225.408,225.435 226.430,224.855 227.200 C 224.275 227.970,223.572 228.841,223.294 229.135 C 223.016 229.429,222.296 230.327,221.694 231.132 C 221.092 231.936,219.430 234.051,218.000 235.831 C 213.763 241.106,213.017 242.075,212.670 242.754 C 212.128 243.814,214.390 241.207,217.800 236.840 C 219.560 234.586,221.270 232.407,221.600 231.999 C 221.930 231.591,224.806 227.978,227.992 223.969 C 233.166 217.459,233.812 216.784,234.052 217.641 C 234.290 218.491,234.325 218.452,234.360 217.300 C 234.420 215.344,234.002 215.644,230.561 220.028 M234.440 221.033 C 234.462 222.335,234.634 223.850,234.822 224.400 C 235.034 225.020,235.077 224.185,234.934 222.200 C 234.658 218.375,234.384 217.729,234.440 221.033 M235.241 226.408 C 235.207 227.242,236.004 230.639,237.054 234.130 C 237.710 236.314,237.520 234.031,236.839 231.544 C 236.395 229.925,235.863 227.880,235.657 227.000 C 235.385 225.836,235.271 225.674,235.241 226.408 M200.032 230.971 C 199.991 231.960,208.066 247.997,208.605 247.999 C 208.828 247.999,209.784 247.010,210.729 245.800 C 211.674 244.590,212.334 243.600,212.195 243.600 C 211.848 243.600,211.142 244.361,210.060 245.900 C 209.557 246.615,208.933 247.192,208.673 247.181 C 208.276 247.165,200.807 232.646,200.246 230.800 C 200.120 230.386,200.053 230.439,200.032 230.971 M237.600 235.568 C 237.600 236.298,240.333 242.395,242.171 245.767 C 246.945 254.526,256.970 264.864,265.118 269.431 C 270.556 272.479,274.726 274.339,279.000 275.622 C 279.880 275.886,281.013 276.259,281.519 276.451 C 283.005 277.016,283.498 276.846,282.254 276.198 C 281.624 275.869,280.690 275.600,280.178 275.600 C 279.666 275.600,279.136 275.420,279.000 275.200 C 278.864 274.980,278.401 274.800,277.971 274.800 C 277.541 274.800,276.877 274.641,276.495 274.447 C 276.113 274.252,275.350 273.917,274.800 273.702 C 271.010 272.217,260.936 266.588,259.600 265.207 C 259.490 265.093,258.500 264.280,257.400 263.400 C 252.598 259.559,243.200 248.348,243.200 246.461 C 243.200 246.244,243.056 246.007,242.881 245.933 C 242.499 245.774,239.593 239.781,238.597 237.100 C 237.919 235.274,237.600 234.784,237.600 235.568 " stroke="none" fill="#4cde86" fill-rule="evenodd"></path></g></svg>